<mxfile host="app.diagrams.net" modified="2023-04-12T10:01:39.337Z" agent="Mozilla/5.0 (Windows NT 10.0; Win64; x64) AppleWebKit/537.36 (KHTML, like Gecko) Chrome/112.0.0.0 Safari/537.36" etag="vgtGgqELaZH6SdFeiIkB" version="21.1.5" type="device">
  <diagram id="bjScMzQ4T2Kvj-jmB15x" name="Page-1">
    <mxGraphModel dx="2603" dy="1619" grid="1" gridSize="10" guides="1" tooltips="1" connect="1" arrows="1" fold="1" page="1" pageScale="1" pageWidth="1169" pageHeight="827" math="1" shadow="0">
      <root>
        <mxCell id="0" />
        <mxCell id="1" parent="0" />
        <mxCell id="-yIMNT5BSCPeYbwXRTaU-44" style="edgeStyle=orthogonalEdgeStyle;rounded=0;jumpStyle=none;orthogonalLoop=1;jettySize=auto;html=1;entryX=0;entryY=0.75;entryDx=0;entryDy=0;startArrow=none;startFill=0;" parent="1" source="-yIMNT5BSCPeYbwXRTaU-30" target="_BIA1Vpo83IUOurUKo9v-40" edge="1">
          <mxGeometry relative="1" as="geometry" />
        </mxCell>
        <mxCell id="-yIMNT5BSCPeYbwXRTaU-156" value="Public" style="text;html=1;strokeColor=none;fillColor=none;align=center;verticalAlign=middle;whiteSpace=wrap;rounded=0;fontSize=8;fontColor=#009900;" parent="1" vertex="1">
          <mxGeometry x="-584" y="513" width="60" height="30" as="geometry" />
        </mxCell>
        <mxCell id="_BIA1Vpo83IUOurUKo9v-57" value="verify_balance()" style="whiteSpace=wrap;html=1;fontFamily=Verdana;fontColor=#000000;fillColor=none;rounded=0;" parent="1" vertex="1">
          <mxGeometry x="-152" y="489" width="124" height="50" as="geometry" />
        </mxCell>
        <mxCell id="_BIA1Vpo83IUOurUKo9v-6" value="$$\sf{value}_{I}$$" style="text;html=1;align=center;verticalAlign=middle;resizable=0;points=[];autosize=1;strokeColor=none;fillColor=none;rounded=0;fontColor=#EA6B66;" parent="1" vertex="1">
          <mxGeometry x="-491" y="375" width="120" height="30" as="geometry" />
        </mxCell>
        <mxCell id="_BIA1Vpo83IUOurUKo9v-9" value="$$\sf{memb}^{\sf{securities}}&lt;br&gt;.\sf{proof}$$" style="text;html=1;align=center;verticalAlign=middle;resizable=0;points=[];autosize=1;strokeColor=none;fillColor=none;rounded=0;spacingRight=-14;" parent="1" vertex="1">
          <mxGeometry x="-481" y="-6" width="160" height="40" as="geometry" />
        </mxCell>
        <mxCell id="LiG2ufvgYyYAR_bV8ZWU-32" style="edgeStyle=orthogonalEdgeStyle;rounded=0;orthogonalLoop=1;jettySize=auto;html=1;entryX=0;entryY=0.5;entryDx=0;entryDy=0;jumpStyle=arc;" parent="1" source="_BIA1Vpo83IUOurUKo9v-13" target="-yIMNT5BSCPeYbwXRTaU-69" edge="1">
          <mxGeometry relative="1" as="geometry" />
        </mxCell>
        <mxCell id="_BIA1Vpo83IUOurUKo9v-13" value="&lt;div&gt;$$\sigma$$&lt;/div&gt;" style="text;html=1;align=center;verticalAlign=middle;resizable=0;points=[];autosize=1;strokeColor=none;fillColor=none;fontColor=#000000;rotation=0;rounded=0;" parent="1" vertex="1">
          <mxGeometry x="-490" y="299" width="90" height="30" as="geometry" />
        </mxCell>
        <mxCell id="_BIA1Vpo83IUOurUKo9v-21" value="$$\forall I$$" style="text;html=1;strokeColor=none;fillColor=none;align=center;verticalAlign=middle;whiteSpace=wrap;rounded=0;fontColor=#000000;" parent="1" vertex="1">
          <mxGeometry x="-520" y="-70" width="130" height="100" as="geometry" />
        </mxCell>
        <mxCell id="_BIA1Vpo83IUOurUKo9v-25" value="$$\sf{value}_{O}$$" style="text;html=1;align=center;verticalAlign=middle;resizable=0;points=[];autosize=1;strokeColor=none;fillColor=none;fontColor=#EA6B66;rounded=0;spacingRight=-8;" parent="1" vertex="1">
          <mxGeometry x="-489" y="632" width="110" height="30" as="geometry" />
        </mxCell>
        <mxCell id="_BIA1Vpo83IUOurUKo9v-38" value="$$\forall O$$" style="text;html=1;strokeColor=none;fillColor=none;align=center;verticalAlign=middle;whiteSpace=wrap;rounded=0;fontColor=#000000;" parent="1" vertex="1">
          <mxGeometry x="-518" y="591" width="130" height="41" as="geometry" />
        </mxCell>
        <mxCell id="LiG2ufvgYyYAR_bV8ZWU-51" style="edgeStyle=orthogonalEdgeStyle;rounded=0;orthogonalLoop=1;jettySize=auto;html=1;" parent="1" source="_BIA1Vpo83IUOurUKo9v-40" edge="1">
          <mxGeometry relative="1" as="geometry">
            <mxPoint x="370" y="26" as="targetPoint" />
          </mxGeometry>
        </mxCell>
        <mxCell id="_BIA1Vpo83IUOurUKo9v-40" value="&lt;font face=&quot;Verdana&quot;&gt;compute_digest()&lt;/font&gt;" style="whiteSpace=wrap;html=1;fontColor=#000000;fillColor=none;rounded=0;" parent="1" vertex="1">
          <mxGeometry x="171" y="1" width="124" height="50" as="geometry" />
        </mxCell>
        <mxCell id="LiG2ufvgYyYAR_bV8ZWU-9" style="edgeStyle=orthogonalEdgeStyle;rounded=0;orthogonalLoop=1;jettySize=auto;html=1;entryX=0;entryY=0.75;entryDx=0;entryDy=0;jumpStyle=arc;" parent="1" target="-yIMNT5BSCPeYbwXRTaU-30" edge="1">
          <mxGeometry relative="1" as="geometry">
            <mxPoint x="-370" y="350" as="sourcePoint" />
            <Array as="points">
              <mxPoint x="-350" y="350" />
              <mxPoint x="-350" y="380" />
              <mxPoint x="-190" y="380" />
              <mxPoint x="-190" y="366" />
            </Array>
          </mxGeometry>
        </mxCell>
        <mxCell id="_BIA1Vpo83IUOurUKo9v-44" value="$$\sf{blinder}^{\sf{com}}$$" style="text;html=1;align=center;verticalAlign=middle;resizable=0;points=[];autosize=1;strokeColor=none;fillColor=none;rounded=0;" parent="1" vertex="1">
          <mxGeometry x="-505" y="337" width="160" height="30" as="geometry" />
        </mxCell>
        <mxCell id="LiG2ufvgYyYAR_bV8ZWU-22" style="edgeStyle=orthogonalEdgeStyle;rounded=0;orthogonalLoop=1;jettySize=auto;html=1;entryX=0;entryY=0.5;entryDx=0;entryDy=0;" parent="1" source="_BIA1Vpo83IUOurUKo9v-49" target="_BIA1Vpo83IUOurUKo9v-40" edge="1">
          <mxGeometry relative="1" as="geometry">
            <Array as="points">
              <mxPoint x="-180" y="58" />
              <mxPoint x="-180" y="26" />
            </Array>
          </mxGeometry>
        </mxCell>
        <mxCell id="_BIA1Vpo83IUOurUKo9v-49" value="$$\sf{pos}$$" style="text;html=1;align=center;verticalAlign=middle;resizable=0;points=[];autosize=1;strokeColor=none;fillColor=none;rounded=0;spacingRight=1;" parent="1" vertex="1">
          <mxGeometry x="-485" y="43" width="90" height="30" as="geometry" />
        </mxCell>
        <mxCell id="_BIA1Vpo83IUOurUKo9v-56" style="edgeStyle=orthogonalEdgeStyle;rounded=0;orthogonalLoop=1;jettySize=auto;html=1;exitX=0.5;exitY=1;exitDx=0;exitDy=0;fontFamily=Verdana;fontColor=#000000;" parent="1" edge="1">
          <mxGeometry relative="1" as="geometry">
            <mxPoint x="-213" y="439.99999999999955" as="sourcePoint" />
            <mxPoint x="-213" y="439.99999999999955" as="targetPoint" />
          </mxGeometry>
        </mxCell>
        <mxCell id="LiG2ufvgYyYAR_bV8ZWU-83" style="edgeStyle=orthogonalEdgeStyle;rounded=0;orthogonalLoop=1;jettySize=auto;html=1;entryX=0;entryY=0.589;entryDx=0;entryDy=0;entryPerimeter=0;" parent="1" source="_BIA1Vpo83IUOurUKo9v-62" target="-yIMNT5BSCPeYbwXRTaU-95" edge="1">
          <mxGeometry relative="1" as="geometry">
            <mxPoint x="363" y="388" as="targetPoint" />
          </mxGeometry>
        </mxCell>
        <mxCell id="_BIA1Vpo83IUOurUKo9v-62" value="range_check()" style="whiteSpace=wrap;html=1;fontFamily=Verdana;fontColor=#000000;fillColor=none;rounded=0;" parent="1" vertex="1">
          <mxGeometry x="172" y="366" width="124" height="50" as="geometry" />
        </mxCell>
        <mxCell id="-yIMNT5BSCPeYbwXRTaU-41" style="edgeStyle=orthogonalEdgeStyle;rounded=0;jumpStyle=arc;orthogonalLoop=1;jettySize=auto;html=1;startArrow=none;startFill=0;fontColor=#000000;strokeColor=#000000;entryX=0;entryY=0.75;entryDx=0;entryDy=0;" parent="1" source="-yIMNT5BSCPeYbwXRTaU-20" target="LiG2ufvgYyYAR_bV8ZWU-8" edge="1">
          <mxGeometry relative="1" as="geometry" />
        </mxCell>
        <mxCell id="-yIMNT5BSCPeYbwXRTaU-20" value="$$\sf{sk}^{\sf{sender}}.\sf{nullify}$$" style="text;html=1;align=center;verticalAlign=middle;resizable=0;points=[];autosize=1;strokeColor=none;fillColor=none;rounded=0;fontColor=#000000;spacingRight=-29;" parent="1" vertex="1">
          <mxGeometry x="-516" y="86" width="180" height="30" as="geometry" />
        </mxCell>
        <mxCell id="-yIMNT5BSCPeYbwXRTaU-30" value="&lt;div&gt;&lt;font face=&quot;Verdana&quot;&gt;com()&lt;/font&gt;&lt;/div&gt;" style="whiteSpace=wrap;html=1;rounded=0;" parent="1" vertex="1">
          <mxGeometry x="-151" y="328" width="124" height="50" as="geometry" />
        </mxCell>
        <mxCell id="-yIMNT5BSCPeYbwXRTaU-46" style="edgeStyle=orthogonalEdgeStyle;rounded=0;jumpStyle=arc;orthogonalLoop=1;jettySize=auto;html=1;entryX=0;entryY=0.25;entryDx=0;entryDy=0;startArrow=none;startFill=0;" parent="1" source="_BIA1Vpo83IUOurUKo9v-9" target="_BIA1Vpo83IUOurUKo9v-40" edge="1">
          <mxGeometry relative="1" as="geometry" />
        </mxCell>
        <mxCell id="-yIMNT5BSCPeYbwXRTaU-81" style="edgeStyle=orthogonalEdgeStyle;rounded=0;jumpStyle=arc;orthogonalLoop=1;jettySize=auto;html=1;entryX=0;entryY=0.5;entryDx=0;entryDy=0;startArrow=none;startFill=0;exitX=1;exitY=0.5;exitDx=0;exitDy=0;" parent="1" source="LiG2ufvgYyYAR_bV8ZWU-92" target="j2_g5vvEaKc47KPDLgIF-1" edge="1">
          <mxGeometry relative="1" as="geometry">
            <Array as="points">
              <mxPoint x="-10" y="690" />
              <mxPoint x="-10" y="468" />
            </Array>
          </mxGeometry>
        </mxCell>
        <mxCell id="-yIMNT5BSCPeYbwXRTaU-69" value="verify_signature()" style="whiteSpace=wrap;html=1;rounded=0;fontFamily=Verdana;" parent="1" vertex="1">
          <mxGeometry x="172" y="273" width="124" height="50" as="geometry" />
        </mxCell>
        <mxCell id="-yIMNT5BSCPeYbwXRTaU-76" value="" style="endArrow=none;dashed=1;html=1;rounded=0;jumpStyle=arc;" parent="1" edge="1">
          <mxGeometry width="50" height="50" relative="1" as="geometry">
            <mxPoint x="-480" y="-40" as="sourcePoint" />
            <mxPoint x="500" y="-40" as="targetPoint" />
          </mxGeometry>
        </mxCell>
        <mxCell id="-yIMNT5BSCPeYbwXRTaU-77" value="" style="endArrow=none;dashed=1;html=1;rounded=0;jumpStyle=arc;" parent="1" edge="1">
          <mxGeometry width="50" height="50" relative="1" as="geometry">
            <mxPoint x="-480" y="-40" as="sourcePoint" />
            <mxPoint x="-480" y="423" as="targetPoint" />
          </mxGeometry>
        </mxCell>
        <mxCell id="-yIMNT5BSCPeYbwXRTaU-79" value="" style="endArrow=none;dashed=1;html=1;rounded=0;jumpStyle=arc;" parent="1" edge="1">
          <mxGeometry width="50" height="50" relative="1" as="geometry">
            <mxPoint x="504" y="-40" as="sourcePoint" />
            <mxPoint x="504" y="424" as="targetPoint" />
          </mxGeometry>
        </mxCell>
        <mxCell id="-yIMNT5BSCPeYbwXRTaU-85" style="edgeStyle=orthogonalEdgeStyle;rounded=0;jumpStyle=arc;orthogonalLoop=1;jettySize=auto;html=1;startArrow=none;startFill=0;exitX=1;exitY=0.5;exitDx=0;exitDy=0;" parent="1" source="-yIMNT5BSCPeYbwXRTaU-69" target="-yIMNT5BSCPeYbwXRTaU-84" edge="1">
          <mxGeometry relative="1" as="geometry" />
        </mxCell>
        <mxCell id="-yIMNT5BSCPeYbwXRTaU-84" value="true" style="text;html=1;align=center;verticalAlign=middle;resizable=0;points=[];autosize=1;strokeColor=none;fillColor=none;fontColor=#000000;rounded=0;fontFamily=Verdana;" parent="1" vertex="1">
          <mxGeometry x="369" y="283" width="50" height="30" as="geometry" />
        </mxCell>
        <mxCell id="-yIMNT5BSCPeYbwXRTaU-94" value="&lt;div&gt;true&lt;/div&gt;" style="text;html=1;align=center;verticalAlign=middle;resizable=0;points=[];autosize=1;strokeColor=none;fillColor=none;fontColor=#000000;rounded=0;fontFamily=Verdana;" parent="1" vertex="1">
          <mxGeometry x="369" y="499" width="50" height="30" as="geometry" />
        </mxCell>
        <mxCell id="-yIMNT5BSCPeYbwXRTaU-95" value="true" style="text;html=1;align=center;verticalAlign=middle;resizable=0;points=[];autosize=1;strokeColor=none;fillColor=none;fontColor=#000000;rounded=0;fontFamily=Verdana;" parent="1" vertex="1">
          <mxGeometry x="369" y="373" width="50" height="30" as="geometry" />
        </mxCell>
        <mxCell id="-yIMNT5BSCPeYbwXRTaU-78" value="" style="endArrow=none;dashed=1;html=1;rounded=0;jumpStyle=none;" parent="1" edge="1">
          <mxGeometry width="50" height="50" relative="1" as="geometry">
            <mxPoint x="-480" y="425" as="sourcePoint" />
            <mxPoint x="500" y="425" as="targetPoint" />
          </mxGeometry>
        </mxCell>
        <mxCell id="-yIMNT5BSCPeYbwXRTaU-147" value="" style="endArrow=none;dashed=1;html=1;rounded=0;jumpStyle=none;" parent="1" edge="1">
          <mxGeometry width="50" height="50" relative="1" as="geometry">
            <mxPoint x="-480" y="924" as="sourcePoint" />
            <mxPoint x="500" y="924" as="targetPoint" />
          </mxGeometry>
        </mxCell>
        <mxCell id="-yIMNT5BSCPeYbwXRTaU-148" value="" style="endArrow=none;dashed=1;html=1;rounded=0;jumpStyle=arc;" parent="1" edge="1">
          <mxGeometry width="50" height="50" relative="1" as="geometry">
            <mxPoint x="-480" y="588" as="sourcePoint" />
            <mxPoint x="-480" y="920" as="targetPoint" />
          </mxGeometry>
        </mxCell>
        <mxCell id="-yIMNT5BSCPeYbwXRTaU-149" value="" style="endArrow=none;dashed=1;html=1;rounded=0;jumpStyle=arc;" parent="1" edge="1">
          <mxGeometry width="50" height="50" relative="1" as="geometry">
            <mxPoint x="502" y="588" as="sourcePoint" />
            <mxPoint x="502" y="920" as="targetPoint" />
          </mxGeometry>
        </mxCell>
        <mxCell id="-yIMNT5BSCPeYbwXRTaU-160" value="Public" style="text;html=1;strokeColor=none;fillColor=none;align=center;verticalAlign=middle;whiteSpace=wrap;rounded=0;fontSize=8;fontColor=#009900;" parent="1" vertex="1">
          <mxGeometry x="365" y="296" width="60" height="30" as="geometry" />
        </mxCell>
        <mxCell id="raTsTh4JkTKd0hfVLLAm-3" value="" style="endArrow=classic;html=1;rounded=0;entryX=0;entryY=0.5;entryDx=0;entryDy=0;startArrow=oval;startFill=1;jumpStyle=arc;strokeColor=#EA6B66;edgeStyle=orthogonalEdgeStyle;" parent="1" target="_BIA1Vpo83IUOurUKo9v-62" edge="1">
          <mxGeometry width="50" height="50" relative="1" as="geometry">
            <mxPoint x="-240" y="391" as="sourcePoint" />
            <mxPoint x="227" y="391" as="targetPoint" />
            <Array as="points">
              <mxPoint x="119" y="391" />
            </Array>
          </mxGeometry>
        </mxCell>
        <mxCell id="raTsTh4JkTKd0hfVLLAm-4" style="edgeStyle=orthogonalEdgeStyle;rounded=0;jumpStyle=arc;orthogonalLoop=1;jettySize=auto;html=1;startArrow=none;startFill=0;strokeColor=#EA6B66;exitX=0.998;exitY=0.622;exitDx=0;exitDy=0;exitPerimeter=0;entryX=0;entryY=0.75;entryDx=0;entryDy=0;" parent="1" source="_BIA1Vpo83IUOurUKo9v-25" target="_BIA1Vpo83IUOurUKo9v-57" edge="1">
          <mxGeometry relative="1" as="geometry">
            <Array as="points">
              <mxPoint x="-310" y="651" />
              <mxPoint x="-310" y="527" />
              <mxPoint x="-200" y="527" />
            </Array>
            <mxPoint x="-200" y="514" as="targetPoint" />
          </mxGeometry>
        </mxCell>
        <mxCell id="-yIMNT5BSCPeYbwXRTaU-102" value="" style="endArrow=none;dashed=1;html=1;rounded=0;jumpStyle=none;" parent="1" edge="1">
          <mxGeometry width="50" height="50" relative="1" as="geometry">
            <mxPoint x="-480" y="589" as="sourcePoint" />
            <mxPoint x="500" y="589" as="targetPoint" />
          </mxGeometry>
        </mxCell>
        <mxCell id="LiG2ufvgYyYAR_bV8ZWU-44" style="edgeStyle=orthogonalEdgeStyle;rounded=0;orthogonalLoop=1;jettySize=auto;html=1;entryX=0.5;entryY=1;entryDx=0;entryDy=0;strokeColor=#A680B8;exitX=1.009;exitY=0.839;exitDx=0;exitDy=0;exitPerimeter=0;jumpStyle=none;" parent="1" source="LiG2ufvgYyYAR_bV8ZWU-99" target="LiG2ufvgYyYAR_bV8ZWU-41" edge="1">
          <mxGeometry relative="1" as="geometry">
            <mxPoint x="-352.29999999999995" y="817.1500000000001" as="sourcePoint" />
            <mxPoint x="181" y="829" as="targetPoint" />
            <Array as="points">
              <mxPoint x="-500" y="524" />
              <mxPoint x="-500" y="910" />
              <mxPoint x="234" y="910" />
            </Array>
          </mxGeometry>
        </mxCell>
        <mxCell id="LiG2ufvgYyYAR_bV8ZWU-5" value="$$\sf{memb}^{\sf{holders}}&lt;br style=&quot;border-color: var(--border-color);&quot;&gt;.\sf{proof}$$" style="text;html=1;align=center;verticalAlign=middle;resizable=0;points=[];autosize=1;strokeColor=none;fillColor=none;rounded=0;fontColor=#000000;" parent="1" vertex="1">
          <mxGeometry x="-480" y="215" width="160" height="40" as="geometry" />
        </mxCell>
        <mxCell id="LiG2ufvgYyYAR_bV8ZWU-24" style="edgeStyle=orthogonalEdgeStyle;rounded=0;orthogonalLoop=1;jettySize=auto;html=1;entryX=0;entryY=0.5;entryDx=0;entryDy=0;jumpStyle=arc;" parent="1" source="LiG2ufvgYyYAR_bV8ZWU-6" target="LiG2ufvgYyYAR_bV8ZWU-14" edge="1">
          <mxGeometry relative="1" as="geometry" />
        </mxCell>
        <mxCell id="LiG2ufvgYyYAR_bV8ZWU-6" value="$$\sf{keys\text{_}relation}&lt;br&gt;.\sf{proof}$$" style="text;html=1;align=center;verticalAlign=middle;resizable=0;points=[];autosize=1;strokeColor=none;fillColor=none;rounded=0;" parent="1" vertex="1">
          <mxGeometry x="-475" y="168" width="160" height="40" as="geometry" />
        </mxCell>
        <mxCell id="j2_g5vvEaKc47KPDLgIF-14" style="edgeStyle=orthogonalEdgeStyle;rounded=0;orthogonalLoop=1;jettySize=auto;html=1;entryX=0;entryY=0.25;entryDx=0;entryDy=0;" parent="1" source="LiG2ufvgYyYAR_bV8ZWU-7" target="-yIMNT5BSCPeYbwXRTaU-69" edge="1">
          <mxGeometry relative="1" as="geometry" />
        </mxCell>
        <mxCell id="LiG2ufvgYyYAR_bV8ZWU-7" value="$$\sf{pk}^{\sf{sender}}.\sf{spend}$$" style="text;html=1;align=center;verticalAlign=middle;resizable=0;points=[];autosize=1;strokeColor=none;fillColor=none;rounded=0;fontColor=#000000;spacingRight=-25;" parent="1" vertex="1">
          <mxGeometry x="-516" y="270" width="180" height="30" as="geometry" />
        </mxCell>
        <mxCell id="LiG2ufvgYyYAR_bV8ZWU-57" style="edgeStyle=orthogonalEdgeStyle;rounded=0;orthogonalLoop=1;jettySize=auto;html=1;entryX=-0.015;entryY=0.501;entryDx=0;entryDy=0;entryPerimeter=0;" parent="1" source="LiG2ufvgYyYAR_bV8ZWU-8" target="LiG2ufvgYyYAR_bV8ZWU-53" edge="1">
          <mxGeometry relative="1" as="geometry" />
        </mxCell>
        <mxCell id="LiG2ufvgYyYAR_bV8ZWU-8" value="&lt;div&gt;&lt;font face=&quot;Verdana&quot;&gt;nullify()&lt;/font&gt;&lt;/div&gt;" style="whiteSpace=wrap;html=1;rounded=0;" parent="1" vertex="1">
          <mxGeometry x="171" y="63" width="124" height="50" as="geometry" />
        </mxCell>
        <mxCell id="LiG2ufvgYyYAR_bV8ZWU-66" style="edgeStyle=orthogonalEdgeStyle;rounded=0;orthogonalLoop=1;jettySize=auto;html=1;entryX=-0.006;entryY=0.509;entryDx=0;entryDy=0;entryPerimeter=0;" parent="1" source="LiG2ufvgYyYAR_bV8ZWU-13" target="LiG2ufvgYyYAR_bV8ZWU-56" edge="1">
          <mxGeometry relative="1" as="geometry" />
        </mxCell>
        <mxCell id="LiG2ufvgYyYAR_bV8ZWU-13" value="&lt;div&gt;&lt;font face=&quot;Verdana&quot;&gt;enc()&lt;/font&gt;&lt;/div&gt;" style="whiteSpace=wrap;html=1;rounded=0;" parent="1" vertex="1">
          <mxGeometry x="-151" y="107" width="124" height="50" as="geometry" />
        </mxCell>
        <mxCell id="LiG2ufvgYyYAR_bV8ZWU-69" style="edgeStyle=orthogonalEdgeStyle;rounded=0;orthogonalLoop=1;jettySize=auto;html=1;" parent="1" source="LiG2ufvgYyYAR_bV8ZWU-14" target="LiG2ufvgYyYAR_bV8ZWU-67" edge="1">
          <mxGeometry relative="1" as="geometry">
            <mxPoint x="683" y="188.00000000000023" as="targetPoint" />
          </mxGeometry>
        </mxCell>
        <mxCell id="LiG2ufvgYyYAR_bV8ZWU-14" value="&lt;font face=&quot;Verdana&quot;&gt;verify_relation()&lt;/font&gt;" style="whiteSpace=wrap;html=1;rounded=0;" parent="1" vertex="1">
          <mxGeometry x="170" y="163" width="124" height="50" as="geometry" />
        </mxCell>
        <mxCell id="LiG2ufvgYyYAR_bV8ZWU-16" value="" style="endArrow=classic;html=1;rounded=0;entryX=0;entryY=0.25;entryDx=0;entryDy=0;jumpStyle=arc;edgeStyle=orthogonalEdgeStyle;startArrow=oval;startFill=1;" parent="1" target="LiG2ufvgYyYAR_bV8ZWU-8" edge="1">
          <mxGeometry width="50" height="50" relative="1" as="geometry">
            <mxPoint x="-180" y="58" as="sourcePoint" />
            <mxPoint x="226" y="73.5" as="targetPoint" />
            <Array as="points">
              <mxPoint x="88" y="58" />
              <mxPoint x="88" y="76" />
            </Array>
          </mxGeometry>
        </mxCell>
        <mxCell id="LiG2ufvgYyYAR_bV8ZWU-18" value="" style="endArrow=classic;html=1;rounded=0;startArrow=oval;startFill=1;edgeStyle=orthogonalEdgeStyle;jumpStyle=arc;entryX=0;entryY=0.25;entryDx=0;entryDy=0;" parent="1" target="LiG2ufvgYyYAR_bV8ZWU-13" edge="1">
          <mxGeometry width="50" height="50" relative="1" as="geometry">
            <mxPoint x="-200" y="101" as="sourcePoint" />
            <mxPoint x="-151" y="140" as="targetPoint" />
            <Array as="points">
              <mxPoint x="-200" y="120" />
              <mxPoint x="-151" y="120" />
            </Array>
          </mxGeometry>
        </mxCell>
        <mxCell id="LiG2ufvgYyYAR_bV8ZWU-68" style="edgeStyle=orthogonalEdgeStyle;rounded=0;orthogonalLoop=1;jettySize=auto;html=1;entryX=-0.009;entryY=0.485;entryDx=0;entryDy=0;entryPerimeter=0;" parent="1" source="LiG2ufvgYyYAR_bV8ZWU-26" target="LiG2ufvgYyYAR_bV8ZWU-54" edge="1">
          <mxGeometry relative="1" as="geometry" />
        </mxCell>
        <mxCell id="LiG2ufvgYyYAR_bV8ZWU-26" value="&lt;font face=&quot;Verdana&quot;&gt;compute_digest()&lt;/font&gt;" style="whiteSpace=wrap;html=1;fontColor=#000000;fillColor=none;rounded=0;" parent="1" vertex="1">
          <mxGeometry x="-151" y="222" width="124" height="50" as="geometry" />
        </mxCell>
        <mxCell id="LiG2ufvgYyYAR_bV8ZWU-28" value="" style="endArrow=classic;html=1;rounded=0;jumpStyle=arc;startArrow=oval;startFill=1;edgeStyle=orthogonalEdgeStyle;entryX=0;entryY=0.75;entryDx=0;entryDy=0;" parent="1" target="LiG2ufvgYyYAR_bV8ZWU-26" edge="1">
          <mxGeometry width="50" height="50" relative="1" as="geometry">
            <mxPoint x="-300" y="285" as="sourcePoint" />
            <mxPoint x="-150" y="250" as="targetPoint" />
            <Array as="points">
              <mxPoint x="-300" y="260" />
              <mxPoint x="-151" y="260" />
            </Array>
          </mxGeometry>
        </mxCell>
        <mxCell id="LiG2ufvgYyYAR_bV8ZWU-30" value="" style="endArrow=classic;html=1;rounded=0;entryX=0;entryY=0.25;entryDx=0;entryDy=0;edgeStyle=orthogonalEdgeStyle;fillColor=#f8cecc;strokeColor=#EA6B66;" parent="1" target="_BIA1Vpo83IUOurUKo9v-57" edge="1">
          <mxGeometry width="50" height="50" relative="1" as="geometry">
            <mxPoint x="-240" y="390" as="sourcePoint" />
            <mxPoint x="-130" y="430" as="targetPoint" />
            <Array as="points">
              <mxPoint x="-240" y="390" />
              <mxPoint x="-240" y="502" />
            </Array>
          </mxGeometry>
        </mxCell>
        <mxCell id="LiG2ufvgYyYAR_bV8ZWU-39" style="edgeStyle=orthogonalEdgeStyle;rounded=0;orthogonalLoop=1;jettySize=auto;html=1;entryX=0;entryY=0.25;entryDx=0;entryDy=0;jumpStyle=arc;exitX=1.017;exitY=0.551;exitDx=0;exitDy=0;exitPerimeter=0;" parent="1" source="LiG2ufvgYyYAR_bV8ZWU-33" target="LiG2ufvgYyYAR_bV8ZWU-92" edge="1">
          <mxGeometry relative="1" as="geometry">
            <Array as="points">
              <mxPoint x="-310" y="703" />
              <mxPoint x="-310" y="678" />
              <mxPoint x="-276" y="678" />
            </Array>
            <mxPoint x="-276" y="692.5" as="targetPoint" />
          </mxGeometry>
        </mxCell>
        <mxCell id="LiG2ufvgYyYAR_bV8ZWU-33" value="$$\sf{pk}^{\sf{recipient}}&lt;br&gt;.\sf{spend}$$" style="text;html=1;align=center;verticalAlign=middle;resizable=0;points=[];autosize=1;strokeColor=none;fillColor=none;rounded=0;fontColor=#000000;spacingRight=-19;" parent="1" vertex="1">
          <mxGeometry x="-485" y="681" width="130" height="40" as="geometry" />
        </mxCell>
        <mxCell id="LiG2ufvgYyYAR_bV8ZWU-63" style="edgeStyle=orthogonalEdgeStyle;rounded=0;orthogonalLoop=1;jettySize=auto;html=1;entryX=-0.07;entryY=0.454;entryDx=0;entryDy=0;entryPerimeter=0;" parent="1" source="LiG2ufvgYyYAR_bV8ZWU-34" target="LiG2ufvgYyYAR_bV8ZWU-62" edge="1">
          <mxGeometry relative="1" as="geometry" />
        </mxCell>
        <mxCell id="LiG2ufvgYyYAR_bV8ZWU-34" value="range_check()" style="whiteSpace=wrap;html=1;fontFamily=Verdana;fontColor=#000000;fillColor=none;rounded=0;" parent="1" vertex="1">
          <mxGeometry x="172" y="623" width="124" height="50" as="geometry" />
        </mxCell>
        <mxCell id="LiG2ufvgYyYAR_bV8ZWU-35" value="" style="endArrow=classic;html=1;rounded=0;startArrow=oval;startFill=1;jumpStyle=arc;strokeColor=#EA6B66;entryX=0;entryY=0.5;entryDx=0;entryDy=0;" parent="1" target="LiG2ufvgYyYAR_bV8ZWU-34" edge="1">
          <mxGeometry width="50" height="50" relative="1" as="geometry">
            <mxPoint x="-310" y="650" as="sourcePoint" />
            <mxPoint x="230" y="650" as="targetPoint" />
          </mxGeometry>
        </mxCell>
        <mxCell id="LiG2ufvgYyYAR_bV8ZWU-36" value="$$\sf{blinder}^{\sf{com}}$$" style="text;html=1;align=center;verticalAlign=middle;resizable=0;points=[];autosize=1;strokeColor=none;fillColor=none;rounded=0;spacingRight=-23;" parent="1" vertex="1">
          <mxGeometry x="-506" y="723" width="140" height="30" as="geometry" />
        </mxCell>
        <mxCell id="LiG2ufvgYyYAR_bV8ZWU-40" value="&lt;div&gt;enc()&lt;/div&gt;" style="whiteSpace=wrap;html=1;rounded=0;fontFamily=Verdana;horizontal=1;" parent="1" vertex="1">
          <mxGeometry x="-152" y="728" width="124" height="50" as="geometry" />
        </mxCell>
        <mxCell id="LiG2ufvgYyYAR_bV8ZWU-60" style="edgeStyle=orthogonalEdgeStyle;rounded=0;orthogonalLoop=1;jettySize=auto;html=1;entryX=0;entryY=0.481;entryDx=0;entryDy=0;entryPerimeter=0;" parent="1" source="LiG2ufvgYyYAR_bV8ZWU-41" edge="1">
          <mxGeometry relative="1" as="geometry">
            <mxPoint x="370" y="778" as="targetPoint" />
            <Array as="points">
              <mxPoint x="350" y="778" />
              <mxPoint x="350" y="778" />
            </Array>
          </mxGeometry>
        </mxCell>
        <mxCell id="LiG2ufvgYyYAR_bV8ZWU-41" value="&lt;div&gt;enc()&lt;/div&gt;" style="whiteSpace=wrap;html=1;rounded=0;fontFamily=Verdana;" parent="1" vertex="1">
          <mxGeometry x="172" y="753" width="124" height="50" as="geometry" />
        </mxCell>
        <mxCell id="LiG2ufvgYyYAR_bV8ZWU-45" value="" style="endArrow=classic;html=1;rounded=0;exitX=1;exitY=0.75;exitDx=0;exitDy=0;edgeStyle=orthogonalEdgeStyle;entryX=0;entryY=0.25;entryDx=0;entryDy=0;" parent="1" source="LiG2ufvgYyYAR_bV8ZWU-40" target="LiG2ufvgYyYAR_bV8ZWU-41" edge="1">
          <mxGeometry width="50" height="50" relative="1" as="geometry">
            <mxPoint x="-90" y="680" as="sourcePoint" />
            <mxPoint x="119" y="777" as="targetPoint" />
          </mxGeometry>
        </mxCell>
        <mxCell id="LiG2ufvgYyYAR_bV8ZWU-52" value="$$\sf{digest}^{\sf{securities}}$$" style="text;html=1;align=left;verticalAlign=middle;resizable=0;points=[];autosize=1;strokeColor=none;fillColor=none;fontColor=#000000;rounded=0;fontFamily=Verdana;spacing=2;imageAspect=1;spacingLeft=12;" parent="1" vertex="1">
          <mxGeometry x="369" y="11" width="240" height="30" as="geometry" />
        </mxCell>
        <mxCell id="LiG2ufvgYyYAR_bV8ZWU-53" value="&lt;font color=&quot;#000000&quot;&gt;$$\sf{nullifier}$$&lt;/font&gt;" style="text;html=1;align=left;verticalAlign=middle;resizable=0;points=[];autosize=1;strokeColor=none;fillColor=none;fontColor=#A680B8;rounded=0;fontFamily=Verdana;spacing=2;imageAspect=1;spacingLeft=12;" parent="1" vertex="1">
          <mxGeometry x="370" y="73" width="140" height="30" as="geometry" />
        </mxCell>
        <mxCell id="LiG2ufvgYyYAR_bV8ZWU-54" value="$$\sf{set}^{\sf{holders}}.\sf{digest}$$" style="text;html=1;align=left;verticalAlign=middle;resizable=0;points=[];autosize=1;strokeColor=none;fillColor=none;fontColor=#000000;rounded=0;fontFamily=Verdana;spacing=2;imageAspect=1;spacingLeft=12;" parent="1" vertex="1">
          <mxGeometry x="368" y="232" width="290" height="30" as="geometry" />
        </mxCell>
        <mxCell id="LiG2ufvgYyYAR_bV8ZWU-56" value="$$\sf{ciphertext}^{\sf{auditor}}$$" style="text;html=1;align=left;verticalAlign=middle;resizable=0;points=[];autosize=1;strokeColor=none;fillColor=none;fontColor=#A680B8;rounded=0;fontFamily=Verdana;spacing=2;imageAspect=1;spacingLeft=12;" parent="1" vertex="1">
          <mxGeometry x="369" y="117" width="250" height="30" as="geometry" />
        </mxCell>
        <mxCell id="LiG2ufvgYyYAR_bV8ZWU-58" value="$$\sf{ciphertext}^{\sf{auditor}}$$" style="text;html=1;align=left;verticalAlign=middle;resizable=0;points=[];autosize=1;strokeColor=none;fillColor=none;fontColor=#A680B8;rounded=0;fontFamily=Verdana;spacing=2;imageAspect=1;spacingLeft=12;" parent="1" vertex="1">
          <mxGeometry x="369" y="765" width="250" height="30" as="geometry" />
        </mxCell>
        <mxCell id="LiG2ufvgYyYAR_bV8ZWU-59" value="$$\sf{ciphertext}^{\sf{recipient}}$$" style="text;html=1;align=left;verticalAlign=middle;resizable=0;points=[];autosize=1;strokeColor=none;fillColor=none;fontColor=#000000;rounded=0;fontFamily=Verdana;spacing=2;imageAspect=1;spacingLeft=12;" parent="1" vertex="1">
          <mxGeometry x="369" y="727" width="260" height="30" as="geometry" />
        </mxCell>
        <mxCell id="LiG2ufvgYyYAR_bV8ZWU-61" value="" style="endArrow=classic;html=1;rounded=0;entryX=-0.011;entryY=0.44;entryDx=0;entryDy=0;entryPerimeter=0;exitX=1;exitY=0.25;exitDx=0;exitDy=0;edgeStyle=orthogonalEdgeStyle;" parent="1" source="LiG2ufvgYyYAR_bV8ZWU-40" target="LiG2ufvgYyYAR_bV8ZWU-59" edge="1">
          <mxGeometry width="50" height="50" relative="1" as="geometry">
            <mxPoint x="260" y="790" as="sourcePoint" />
            <mxPoint x="310" y="740" as="targetPoint" />
            <Array as="points">
              <mxPoint x="20" y="740" />
              <mxPoint x="20" y="740" />
            </Array>
          </mxGeometry>
        </mxCell>
        <mxCell id="LiG2ufvgYyYAR_bV8ZWU-62" value="&lt;div&gt;true&lt;/div&gt;" style="text;html=1;align=center;verticalAlign=middle;resizable=0;points=[];autosize=1;strokeColor=none;fillColor=none;fontColor=#000000;rounded=0;fontFamily=Verdana;" parent="1" vertex="1">
          <mxGeometry x="369" y="634" width="50" height="30" as="geometry" />
        </mxCell>
        <mxCell id="LiG2ufvgYyYAR_bV8ZWU-64" value="$$\sf{commitment}$$" style="text;html=1;align=left;verticalAlign=middle;resizable=0;points=[];autosize=1;strokeColor=none;fillColor=none;fontColor=#000000;rounded=0;fontFamily=Verdana;spacing=2;imageAspect=1;spacingLeft=12;" parent="1" vertex="1">
          <mxGeometry x="370" y="674" width="170" height="30" as="geometry" />
        </mxCell>
        <mxCell id="LiG2ufvgYyYAR_bV8ZWU-65" value="" style="endArrow=classic;html=1;rounded=0;entryX=-0.012;entryY=0.525;entryDx=0;entryDy=0;entryPerimeter=0;startArrow=oval;startFill=1;" parent="1" target="LiG2ufvgYyYAR_bV8ZWU-64" edge="1">
          <mxGeometry width="50" height="50" relative="1" as="geometry">
            <mxPoint x="-10" y="690" as="sourcePoint" />
            <mxPoint x="480" y="660" as="targetPoint" />
          </mxGeometry>
        </mxCell>
        <mxCell id="LiG2ufvgYyYAR_bV8ZWU-67" value="true" style="text;html=1;align=center;verticalAlign=middle;resizable=0;points=[];autosize=1;strokeColor=none;fillColor=none;fontColor=#000000;rounded=0;fontFamily=Verdana;" parent="1" vertex="1">
          <mxGeometry x="370" y="173" width="50" height="30" as="geometry" />
        </mxCell>
        <mxCell id="LiG2ufvgYyYAR_bV8ZWU-71" value="Public" style="text;html=1;strokeColor=none;fillColor=none;align=center;verticalAlign=middle;whiteSpace=wrap;rounded=0;fontSize=8;fontColor=#009900;" parent="1" vertex="1">
          <mxGeometry x="364" y="245" width="60" height="30" as="geometry" />
        </mxCell>
        <mxCell id="LiG2ufvgYyYAR_bV8ZWU-72" value="Public" style="text;html=1;strokeColor=none;fillColor=none;align=center;verticalAlign=middle;whiteSpace=wrap;rounded=0;fontSize=8;fontColor=#009900;" parent="1" vertex="1">
          <mxGeometry x="364" y="184" width="60" height="30" as="geometry" />
        </mxCell>
        <mxCell id="LiG2ufvgYyYAR_bV8ZWU-73" value="Public" style="text;html=1;strokeColor=none;fillColor=none;align=center;verticalAlign=middle;whiteSpace=wrap;rounded=0;fontSize=8;fontColor=#009900;" parent="1" vertex="1">
          <mxGeometry x="364" y="131" width="60" height="30" as="geometry" />
        </mxCell>
        <mxCell id="LiG2ufvgYyYAR_bV8ZWU-74" value="Public" style="text;html=1;strokeColor=none;fillColor=none;align=center;verticalAlign=middle;whiteSpace=wrap;rounded=0;fontSize=8;fontColor=#009900;" parent="1" vertex="1">
          <mxGeometry x="364" y="86" width="60" height="30" as="geometry" />
        </mxCell>
        <mxCell id="LiG2ufvgYyYAR_bV8ZWU-75" value="Public" style="text;html=1;strokeColor=none;fillColor=none;align=center;verticalAlign=middle;whiteSpace=wrap;rounded=0;fontSize=8;fontColor=#009900;" parent="1" vertex="1">
          <mxGeometry x="364" y="24" width="60" height="30" as="geometry" />
        </mxCell>
        <mxCell id="LiG2ufvgYyYAR_bV8ZWU-77" value="Public" style="text;html=1;strokeColor=none;fillColor=none;align=center;verticalAlign=middle;whiteSpace=wrap;rounded=0;fontSize=8;fontColor=#009900;" parent="1" vertex="1">
          <mxGeometry x="365" y="387" width="60" height="30" as="geometry" />
        </mxCell>
        <mxCell id="LiG2ufvgYyYAR_bV8ZWU-78" value="Public" style="text;html=1;strokeColor=none;fillColor=none;align=center;verticalAlign=middle;whiteSpace=wrap;rounded=0;fontSize=8;fontColor=#009900;" parent="1" vertex="1">
          <mxGeometry x="365" y="509" width="60" height="30" as="geometry" />
        </mxCell>
        <mxCell id="LiG2ufvgYyYAR_bV8ZWU-79" value="Public" style="text;html=1;strokeColor=none;fillColor=none;align=center;verticalAlign=middle;whiteSpace=wrap;rounded=0;fontSize=8;fontColor=#009900;" parent="1" vertex="1">
          <mxGeometry x="365" y="643" width="60" height="30" as="geometry" />
        </mxCell>
        <mxCell id="LiG2ufvgYyYAR_bV8ZWU-80" value="Public" style="text;html=1;strokeColor=none;fillColor=none;align=center;verticalAlign=middle;whiteSpace=wrap;rounded=0;fontSize=8;fontColor=#009900;" parent="1" vertex="1">
          <mxGeometry x="365" y="685" width="60" height="30" as="geometry" />
        </mxCell>
        <mxCell id="LiG2ufvgYyYAR_bV8ZWU-81" value="Public" style="text;html=1;strokeColor=none;fillColor=none;align=center;verticalAlign=middle;whiteSpace=wrap;rounded=0;fontSize=8;fontColor=#009900;" parent="1" vertex="1">
          <mxGeometry x="365" y="740" width="60" height="30" as="geometry" />
        </mxCell>
        <mxCell id="LiG2ufvgYyYAR_bV8ZWU-82" value="Public" style="text;html=1;strokeColor=none;fillColor=none;align=center;verticalAlign=middle;whiteSpace=wrap;rounded=0;fontSize=8;fontColor=#009900;" parent="1" vertex="1">
          <mxGeometry x="365" y="780" width="60" height="30" as="geometry" />
        </mxCell>
        <mxCell id="LiG2ufvgYyYAR_bV8ZWU-87" style="edgeStyle=orthogonalEdgeStyle;rounded=0;orthogonalLoop=1;jettySize=auto;html=1;entryX=0.5;entryY=1;entryDx=0;entryDy=0;jumpStyle=none;exitX=1.017;exitY=0.2;exitDx=0;exitDy=0;exitPerimeter=0;fontColor=#A680B8;strokeColor=#A680B8;" parent="1" source="LiG2ufvgYyYAR_bV8ZWU-99" target="LiG2ufvgYyYAR_bV8ZWU-13" edge="1">
          <mxGeometry relative="1" as="geometry">
            <mxPoint x="-478.0000000000002" y="137.00000000000023" as="sourcePoint" />
            <Array as="points">
              <mxPoint x="-500" y="505" />
              <mxPoint x="-500" y="160" />
              <mxPoint x="-220" y="160" />
              <mxPoint x="-220" y="170" />
              <mxPoint x="-89" y="170" />
            </Array>
          </mxGeometry>
        </mxCell>
        <mxCell id="LiG2ufvgYyYAR_bV8ZWU-88" value="" style="endArrow=classic;html=1;rounded=0;entryX=0;entryY=0.75;entryDx=0;entryDy=0;startArrow=oval;startFill=1;jumpStyle=none;edgeStyle=orthogonalEdgeStyle;" parent="1" target="LiG2ufvgYyYAR_bV8ZWU-14" edge="1">
          <mxGeometry width="50" height="50" relative="1" as="geometry">
            <mxPoint x="-300" y="260" as="sourcePoint" />
            <mxPoint x="-20" y="210" as="targetPoint" />
            <Array as="points">
              <mxPoint x="-300" y="201" />
            </Array>
          </mxGeometry>
        </mxCell>
        <mxCell id="LiG2ufvgYyYAR_bV8ZWU-90" style="edgeStyle=orthogonalEdgeStyle;rounded=0;orthogonalLoop=1;jettySize=auto;html=1;entryX=0.5;entryY=1;entryDx=0;entryDy=0;exitX=1.012;exitY=0.474;exitDx=0;exitDy=0;exitPerimeter=0;" parent="1" source="LiG2ufvgYyYAR_bV8ZWU-89" target="LiG2ufvgYyYAR_bV8ZWU-40" edge="1">
          <mxGeometry relative="1" as="geometry">
            <Array as="points">
              <mxPoint x="-90" y="794" />
            </Array>
          </mxGeometry>
        </mxCell>
        <mxCell id="LiG2ufvgYyYAR_bV8ZWU-89" value="$$\sf{pk}^{\sf{recipient}}&lt;br&gt;.\sf{view}$$" style="text;html=1;align=center;verticalAlign=middle;resizable=0;points=[];autosize=1;strokeColor=none;fillColor=none;rounded=0;fontColor=#000000;spacingRight=-29;" parent="1" vertex="1">
          <mxGeometry x="-486" y="775" width="120" height="40" as="geometry" />
        </mxCell>
        <mxCell id="LiG2ufvgYyYAR_bV8ZWU-92" value="&lt;div&gt;com()&lt;/div&gt;" style="whiteSpace=wrap;html=1;rounded=0;fontFamily=Verdana;" parent="1" vertex="1">
          <mxGeometry x="-151" y="665" width="124" height="50" as="geometry" />
        </mxCell>
        <mxCell id="LiG2ufvgYyYAR_bV8ZWU-94" value="" style="endArrow=classic;html=1;rounded=0;entryX=0;entryY=0.25;entryDx=0;entryDy=0;startArrow=oval;startFill=1;edgeStyle=orthogonalEdgeStyle;jumpStyle=none;" parent="1" target="LiG2ufvgYyYAR_bV8ZWU-40" edge="1">
          <mxGeometry width="50" height="50" relative="1" as="geometry">
            <mxPoint x="-180" y="678" as="sourcePoint" />
            <mxPoint x="-152" y="761" as="targetPoint" />
            <Array as="points">
              <mxPoint x="-180" y="740" />
              <mxPoint x="-152" y="740" />
            </Array>
          </mxGeometry>
        </mxCell>
        <mxCell id="LiG2ufvgYyYAR_bV8ZWU-38" style="edgeStyle=orthogonalEdgeStyle;rounded=0;orthogonalLoop=1;jettySize=auto;html=1;entryX=0;entryY=0.75;entryDx=0;entryDy=0;jumpStyle=arc;" parent="1" source="LiG2ufvgYyYAR_bV8ZWU-36" target="LiG2ufvgYyYAR_bV8ZWU-92" edge="1">
          <mxGeometry relative="1" as="geometry">
            <Array as="points">
              <mxPoint x="-240" y="740" />
              <mxPoint x="-240" y="703" />
            </Array>
          </mxGeometry>
        </mxCell>
        <mxCell id="LiG2ufvgYyYAR_bV8ZWU-99" value="$$\sf{pk}^{\sf{auditor}}$$" style="text;html=1;align=right;verticalAlign=middle;resizable=0;points=[];autosize=1;strokeColor=none;fillColor=none;rounded=0;fontColor=#A680B8;" parent="1" vertex="1">
          <mxGeometry x="-675" y="499" width="150" height="30" as="geometry" />
        </mxCell>
        <mxCell id="j2_g5vvEaKc47KPDLgIF-2" style="edgeStyle=orthogonalEdgeStyle;rounded=0;orthogonalLoop=1;jettySize=auto;html=1;entryX=0;entryY=0.75;entryDx=0;entryDy=0;" parent="1" source="j2_g5vvEaKc47KPDLgIF-1" target="-yIMNT5BSCPeYbwXRTaU-69" edge="1">
          <mxGeometry relative="1" as="geometry" />
        </mxCell>
        <mxCell id="j2_g5vvEaKc47KPDLgIF-1" value="Hash()" style="whiteSpace=wrap;html=1;fontFamily=Verdana;fontColor=#000000;fillColor=none;rounded=0;" parent="1" vertex="1">
          <mxGeometry x="8" y="443" width="124" height="50" as="geometry" />
        </mxCell>
        <mxCell id="-yIMNT5BSCPeYbwXRTaU-96" style="edgeStyle=orthogonalEdgeStyle;rounded=0;jumpStyle=arc;orthogonalLoop=1;jettySize=auto;html=1;startArrow=none;startFill=0;exitX=1;exitY=0.5;exitDx=0;exitDy=0;" parent="1" source="_BIA1Vpo83IUOurUKo9v-57" target="-yIMNT5BSCPeYbwXRTaU-94" edge="1">
          <mxGeometry relative="1" as="geometry" />
        </mxCell>
        <mxCell id="j2_g5vvEaKc47KPDLgIF-3" value="" style="endArrow=none;html=1;rounded=0;startArrow=none;startFill=0;startSize=6;" parent="1" edge="1">
          <mxGeometry width="50" height="50" relative="1" as="geometry">
            <mxPoint x="-180" y="120" as="sourcePoint" />
            <mxPoint x="-180" y="60" as="targetPoint" />
          </mxGeometry>
        </mxCell>
        <mxCell id="j2_g5vvEaKc47KPDLgIF-4" value="" style="endArrow=oval;html=1;rounded=0;startArrow=oval;startFill=1;endFill=1;" parent="1" edge="1">
          <mxGeometry width="50" height="50" relative="1" as="geometry">
            <mxPoint x="-240" y="740" as="sourcePoint" />
            <mxPoint x="-180" y="740" as="targetPoint" />
          </mxGeometry>
        </mxCell>
        <mxCell id="j2_g5vvEaKc47KPDLgIF-7" style="edgeStyle=orthogonalEdgeStyle;rounded=0;orthogonalLoop=1;jettySize=auto;html=1;entryX=0;entryY=0.75;entryDx=0;entryDy=0;" parent="1" source="j2_g5vvEaKc47KPDLgIF-6" target="LiG2ufvgYyYAR_bV8ZWU-40" edge="1">
          <mxGeometry relative="1" as="geometry" />
        </mxCell>
        <mxCell id="j2_g5vvEaKc47KPDLgIF-6" value="$$\sf{blinder}^{\sf{enc}}$$" style="text;html=1;align=center;verticalAlign=middle;resizable=0;points=[];autosize=1;strokeColor=none;fillColor=none;rounded=0;spacingRight=-32;" parent="1" vertex="1">
          <mxGeometry x="-506" y="751" width="130" height="30" as="geometry" />
        </mxCell>
        <mxCell id="j2_g5vvEaKc47KPDLgIF-9" style="edgeStyle=orthogonalEdgeStyle;rounded=0;orthogonalLoop=1;jettySize=auto;html=1;entryX=0;entryY=0.75;entryDx=0;entryDy=0;" parent="1" source="j2_g5vvEaKc47KPDLgIF-8" target="LiG2ufvgYyYAR_bV8ZWU-41" edge="1">
          <mxGeometry relative="1" as="geometry">
            <Array as="points">
              <mxPoint x="50" y="830" />
              <mxPoint x="50" y="791" />
              <mxPoint x="120" y="791" />
            </Array>
          </mxGeometry>
        </mxCell>
        <mxCell id="j2_g5vvEaKc47KPDLgIF-8" value="$$\sf{blinder}^{\sf{enc}^{\sf{auditor}}}$$" style="text;html=1;align=center;verticalAlign=middle;resizable=0;points=[];autosize=1;strokeColor=none;fillColor=none;rounded=0;spacingRight=-38;" parent="1" vertex="1">
          <mxGeometry x="-525" y="816" width="190" height="30" as="geometry" />
        </mxCell>
        <mxCell id="j2_g5vvEaKc47KPDLgIF-13" style="edgeStyle=orthogonalEdgeStyle;rounded=0;orthogonalLoop=1;jettySize=auto;html=1;entryX=0;entryY=0.75;entryDx=0;entryDy=0;" parent="1" source="j2_g5vvEaKc47KPDLgIF-12" target="LiG2ufvgYyYAR_bV8ZWU-13" edge="1">
          <mxGeometry relative="1" as="geometry">
            <Array as="points">
              <mxPoint x="-255" y="145" />
            </Array>
          </mxGeometry>
        </mxCell>
        <mxCell id="j2_g5vvEaKc47KPDLgIF-12" value="&lt;span style=&quot;color: rgb(0, 0, 0); font-family: Helvetica; font-size: 12px; font-style: normal; font-variant-ligatures: normal; font-variant-caps: normal; font-weight: 400; letter-spacing: normal; orphans: 2; text-align: center; text-indent: 0px; text-transform: none; widows: 2; word-spacing: 0px; -webkit-text-stroke-width: 0px; background-color: rgb(251, 251, 251); text-decoration-thickness: initial; text-decoration-style: initial; text-decoration-color: initial; float: none; display: inline !important;&quot;&gt;$$\sf{blinder}^{\sf{enc}}$$&lt;/span&gt;" style="text;whiteSpace=wrap;html=1;spacingRight=-40;" parent="1" vertex="1">
          <mxGeometry x="-454" y="113" width="94" height="40" as="geometry" />
        </mxCell>
        <mxCell id="LiG2ufvgYyYAR_bV8ZWU-29" style="edgeStyle=orthogonalEdgeStyle;rounded=0;orthogonalLoop=1;jettySize=auto;html=1;jumpStyle=arc;entryX=0;entryY=0.25;entryDx=0;entryDy=0;" parent="1" source="LiG2ufvgYyYAR_bV8ZWU-5" target="LiG2ufvgYyYAR_bV8ZWU-26" edge="1">
          <mxGeometry relative="1" as="geometry" />
        </mxCell>
        <mxCell id="j2_g5vvEaKc47KPDLgIF-16" value="" style="endArrow=classic;html=1;rounded=0;entryX=0;entryY=0.25;entryDx=0;entryDy=0;edgeStyle=orthogonalEdgeStyle;" parent="1" target="-yIMNT5BSCPeYbwXRTaU-30" edge="1">
          <mxGeometry width="50" height="50" relative="1" as="geometry">
            <mxPoint x="-300" y="285" as="sourcePoint" />
            <mxPoint x="-70" y="410" as="targetPoint" />
            <Array as="points">
              <mxPoint x="-300" y="340" />
              <mxPoint x="-225" y="340" />
            </Array>
          </mxGeometry>
        </mxCell>
        <mxCell id="j2_g5vvEaKc47KPDLgIF-11" value="" style="endArrow=none;html=1;rounded=0;exitX=1.024;exitY=0.522;exitDx=0;exitDy=0;exitPerimeter=0;edgeStyle=orthogonalEdgeStyle;strokeColor=#EA6B66;startArrow=oval;startFill=1;endFill=0;" parent="1" source="_BIA1Vpo83IUOurUKo9v-6" edge="1">
          <mxGeometry width="50" height="50" relative="1" as="geometry">
            <mxPoint x="-120" y="250" as="sourcePoint" />
            <mxPoint x="-240" y="340" as="targetPoint" />
            <Array as="points">
              <mxPoint x="-240" y="390" />
              <mxPoint x="-240" y="341" />
            </Array>
          </mxGeometry>
        </mxCell>
        <mxCell id="j2_g5vvEaKc47KPDLgIF-18" value="" style="endArrow=none;html=1;rounded=0;strokeColor=#EA6B66;" parent="1" edge="1">
          <mxGeometry width="50" height="50" relative="1" as="geometry">
            <mxPoint x="-310" y="678" as="sourcePoint" />
            <mxPoint x="-310" y="650" as="targetPoint" />
          </mxGeometry>
        </mxCell>
        <mxCell id="TdKGxEMTEXMQK80dkYmr-4" value="" style="endArrow=classic;html=1;rounded=0;entryX=0;entryY=0.25;entryDx=0;entryDy=0;edgeStyle=orthogonalEdgeStyle;startArrow=oval;startFill=1;" edge="1" parent="1" target="LiG2ufvgYyYAR_bV8ZWU-14">
          <mxGeometry width="50" height="50" relative="1" as="geometry">
            <mxPoint x="-200" y="120" as="sourcePoint" />
            <mxPoint x="-90" y="200" as="targetPoint" />
            <Array as="points">
              <mxPoint x="-200" y="176" />
              <mxPoint x="-15" y="176" />
            </Array>
          </mxGeometry>
        </mxCell>
        <mxCell id="TdKGxEMTEXMQK80dkYmr-7" style="edgeStyle=orthogonalEdgeStyle;rounded=0;orthogonalLoop=1;jettySize=auto;html=1;entryX=0;entryY=0.75;entryDx=0;entryDy=0;" edge="1" parent="1" source="TdKGxEMTEXMQK80dkYmr-5" target="TdKGxEMTEXMQK80dkYmr-6">
          <mxGeometry relative="1" as="geometry" />
        </mxCell>
        <mxCell id="TdKGxEMTEXMQK80dkYmr-5" value="$$\sf{memb}^{\sf{holders}}&lt;br style=&quot;border-color: var(--border-color);&quot;&gt;.\sf{proof}$$" style="text;html=1;align=center;verticalAlign=middle;resizable=0;points=[];autosize=1;strokeColor=none;fillColor=none;rounded=0;fontColor=#000000;" vertex="1" parent="1">
          <mxGeometry x="-481" y="869" width="160" height="40" as="geometry" />
        </mxCell>
        <mxCell id="TdKGxEMTEXMQK80dkYmr-11" style="edgeStyle=orthogonalEdgeStyle;rounded=0;orthogonalLoop=1;jettySize=auto;html=1;" edge="1" parent="1" source="TdKGxEMTEXMQK80dkYmr-6" target="TdKGxEMTEXMQK80dkYmr-9">
          <mxGeometry relative="1" as="geometry" />
        </mxCell>
        <mxCell id="TdKGxEMTEXMQK80dkYmr-6" value="&lt;font face=&quot;Verdana&quot;&gt;compute_digest()&lt;/font&gt;" style="whiteSpace=wrap;html=1;fontColor=#000000;fillColor=none;rounded=0;" vertex="1" parent="1">
          <mxGeometry x="-152" y="852" width="124" height="50" as="geometry" />
        </mxCell>
        <mxCell id="TdKGxEMTEXMQK80dkYmr-8" value="" style="endArrow=classic;html=1;rounded=0;entryX=0;entryY=0.25;entryDx=0;entryDy=0;edgeStyle=orthogonalEdgeStyle;" edge="1" parent="1">
          <mxGeometry width="50" height="50" relative="1" as="geometry">
            <mxPoint x="-310" y="703" as="sourcePoint" />
            <mxPoint x="-152" y="867.5" as="targetPoint" />
            <Array as="points">
              <mxPoint x="-310" y="867" />
            </Array>
          </mxGeometry>
        </mxCell>
        <mxCell id="TdKGxEMTEXMQK80dkYmr-9" value="$$\sf{set}^{\sf{holders}}.\sf{digest}$$" style="text;html=1;align=left;verticalAlign=middle;resizable=0;points=[];autosize=1;strokeColor=none;fillColor=none;fontColor=#000000;rounded=0;fontFamily=Verdana;spacing=2;imageAspect=1;spacingLeft=12;" vertex="1" parent="1">
          <mxGeometry x="368" y="862" width="290" height="30" as="geometry" />
        </mxCell>
        <mxCell id="TdKGxEMTEXMQK80dkYmr-10" value="Public" style="text;html=1;strokeColor=none;fillColor=none;align=center;verticalAlign=middle;whiteSpace=wrap;rounded=0;fontSize=8;fontColor=#009900;" vertex="1" parent="1">
          <mxGeometry x="364" y="875" width="60" height="30" as="geometry" />
        </mxCell>
      </root>
    </mxGraphModel>
  </diagram>
</mxfile>
